<svg width="111" height="111" viewBox="0 0 111 111" fill="none" xmlns="http://www.w3.org/2000/svg">
<g id="Vector">
<path fill-rule="evenodd" clip-rule="evenodd" d="M55.538 9.34537C30.0335 9.34537 9.35806 30.0208 9.35806 55.5253C9.35806 81.0298 30.0335 101.705 55.538 101.705C81.0425 101.705 101.718 81.0298 101.718 55.5253C101.718 30.0208 81.0425 9.34537 55.538 9.34537ZM0.12207 55.5253C0.12207 24.9199 24.9326 0.109375 55.538 0.109375C86.1434 0.109375 110.954 24.9199 110.954 55.5253C110.954 86.1307 86.1434 110.941 55.538 110.941C24.9326 110.941 0.12207 86.1307 0.12207 55.5253Z" fill="#6AD4F5"/>
<path fill-rule="evenodd" clip-rule="evenodd" d="M42.9998 47.7465C42.9998 41.2431 48.356 35.999 54.9998 35.999C61.6435 35.999 66.9998 41.2431 66.9998 47.7465C66.9998 52.8726 63.5594 55.5791 61.2942 57.0945C60.3187 57.7542 59.683 58.2776 59.2691 58.821C58.9227 59.2758 58.685 59.8032 58.685 60.6426V61.6721C58.685 63.6645 57.0351 65.2797 54.9998 65.2797C52.9645 65.2797 51.3145 63.6645 51.3145 61.6721V60.6426C51.3145 55.3993 54.8367 52.6912 57.1135 51.1522L57.1291 51.1417C58.0585 50.5204 58.6734 50.0089 59.07 49.4848C59.4046 49.0428 59.6293 48.536 59.6293 47.7465C59.6293 45.2276 57.5725 43.2142 54.9998 43.2142C52.427 43.2142 50.3702 45.2276 50.3702 47.7465C50.3702 49.7389 48.7203 51.3541 46.685 51.3541C44.6497 51.3541 42.9998 49.7389 42.9998 47.7465ZM51.2917 73.3914C51.2917 71.399 52.9416 69.7838 54.9769 69.7838H55.022C57.0573 69.7838 58.7072 71.399 58.7072 73.3914C58.7072 75.3839 57.0573 76.999 55.022 76.999H54.9769C52.9416 76.999 51.2917 75.3839 51.2917 73.3914Z" fill="#6AD4F5"/>
</g>
</svg>
