<svg width="111" height="111" viewBox="0 0 111 111" fill="none" xmlns="http://www.w3.org/2000/svg">
<path id="Vector (Stroke)" opacity="0.9" fill-rule="evenodd" clip-rule="evenodd" d="M55.538 9.34537C30.0335 9.34537 9.35806 30.0208 9.35806 55.5253C9.35806 81.0298 30.0335 101.705 55.538 101.705C81.0425 101.705 101.718 81.0298 101.718 55.5253C101.718 30.0208 81.0425 9.34537 55.538 9.34537ZM0.12207 55.5253C0.12207 24.9199 24.9326 0.109375 55.538 0.109375C86.1434 0.109375 110.954 24.9199 110.954 55.5253C110.954 86.1307 86.1434 110.941 55.538 110.941C24.9326 110.941 0.12207 86.1307 0.12207 55.5253ZM55.5374 62.0555L41.8713 75.7215L35.3405 69.1907L49.0065 55.5247L35.34 41.8581L41.8708 35.3273L55.5374 48.9938L69.2058 35.3254L75.7366 41.8562L62.0682 55.5247L75.7361 69.1926L69.2053 75.7234L55.5374 62.0555Z" fill="#E02E2E"/>
</svg>
