<svg width="111" height="111" viewBox="0 0 111 111" fill="none" xmlns="http://www.w3.org/2000/svg">
<path id="Vector (Stroke)" fill-rule="evenodd" clip-rule="evenodd" d="M55.415 9.23583C29.9109 9.23583 9.23583 29.9109 9.23583 55.415C9.23583 80.9191 29.9109 101.594 55.415 101.594C80.9191 101.594 101.594 80.9191 101.594 55.415C101.594 29.9109 80.9191 9.23583 55.415 9.23583ZM0 55.415C0 24.8101 24.8101 0 55.415 0C86.0199 0 110.83 24.8101 110.83 55.415C110.83 86.0199 86.0199 110.83 55.415 110.83C24.8101 110.83 0 86.0199 0 55.415ZM81.5391 41.439L50.0812 79.1884L29.5732 58.6804L36.1039 52.1496L49.4606 65.5063L74.4439 35.5263L81.5391 41.439Z" fill="#20CD5B"/>
</svg>
